<?xml version="1.0" encoding="UTF-8" standalone="no"?>
<!-- Created with Inkscape (http://www.inkscape.org/) -->

<svg
   version="1.1"
   id="svg2"
   width="2913.3333"
   height="2748"
   viewBox="0 0 2913.3333 2748"
   sodipodi:docname="logo"
   xmlns:inkscape="http://www.inkscape.org/namespaces/inkscape"
   xmlns:sodipodi="http://sodipodi.sourceforge.net/DTD/sodipodi-0.dtd"
   xmlns="http://www.w3.org/2000/svg"
   xmlns:svg="http://www.w3.org/2000/svg">
  <defs
     id="defs6" />
  <sodipodi:namedview
     id="namedview4"
     pagecolor="#ffffff"
     bordercolor="#000000"
     borderopacity="0.25"
     inkscape:showpageshadow="2"
     inkscape:pageopacity="0.0"
     inkscape:pagecheckerboard="0"
     inkscape:deskcolor="#d1d1d1" />
  <g
     id="g8"
     inkscape:groupmode="layer"
     inkscape:label="ink_ext_XXXXXX"
     transform="matrix(1.3333333,0,0,-1.3333333,0,2748)">
    <g
       id="g10"
       transform="scale(0.1)">
      <path
         d="m 16391.9,3869.2 c -7.1,-38 -9.7,-77.1 -9,-115.6 1.4,-89.9 17.8,-179 20.1,-268.8 5.2,-199.4 -117.5,-351.3 -58.1,-558.4 27.2,-94.6 129.2,-272.7 243,-270.1 113.4,2.5 183.3,125.5 215.9,216.9 49.6,138.6 97.1,265.3 167.3,396.3 33.9,63.3 66.9,128.4 93.7,195.3 -245.3,108.8 -464.5,237.5 -620.7,359.4 -18.6,14.5 -35.8,29.5 -52.2,45"
         style="fill:#1d2b50;fill-opacity:1;fill-rule:nonzero;stroke:none"
         id="path12" />
      <path
         d="m 18924.8,3621.6 c 27.5,-29.5 54.3,-59.8 82.4,-88.8 80.1,-82.7 183,-169.9 295.6,-146.8 93.4,19.1 157.1,113.6 167.2,208.3 10.1,94.8 -22.9,188.8 -63.7,274.9 -99.2,209.5 -245.9,391.6 -408,555.6 4.7,-45.8 9.2,-91.7 12.6,-137.7 16.2,-220.7 -0.5,-466.4 -86.1,-665.5"
         style="fill:#1d2b50;fill-opacity:1;fill-rule:nonzero;stroke:none"
         id="path14" />
      <path
         d="m 19044.3,2988.2 c -32.2,181.6 -98,354.5 -180.6,518.9 -53.9,-82.8 -124,-152.5 -215.3,-200.8 -89.5,-47.4 -190.6,-77.3 -299.2,-93.2 68.5,-150.6 141.8,-299 221.5,-444.1 55.3,-100.9 131.5,-212.1 246.3,-219.6 95.1,-6.2 181.5,68.1 216.3,156.8 34.7,88.8 27.7,188.1 11,282"
         style="fill:#1d2b50;fill-opacity:1;fill-rule:nonzero;stroke:none"
         id="path16" />
      <path
         d="m 17642.3,3266 c 3.2,-14.9 6.4,-29.8 9.8,-44.7 40.1,-179.7 87.8,-357.7 142.9,-533.4 34.3,-109.8 87.1,-233.9 198.2,-263.9 91.9,-24.8 191.4,31 242.9,111.2 51.6,80 64.3,178.9 66.4,274.2 3.1,132.7 -12.1,264.3 -38.8,393.9 -193.7,-14.9 -407.3,10.8 -621.4,62.7"
         style="fill:#1d2b50;fill-opacity:1;fill-rule:nonzero;stroke:none"
         id="path18" />
      <path
         d="m 16075.3,8629.9 c 27.1,-218.2 21.3,-440.5 -19.3,-656.7 -39,-207.7 -88.5,-417.4 -81.9,-630.2 11.3,-373.2 218,-787.3 369,-1123.4 39.8,-88.5 81.4,-177 125,-265 318,-640.7 744.8,-1254.8 1346.4,-1648.9 151.6,-99.1 319.6,-185.4 500.5,-194.1 191.1,-9.1 378,70.6 531.6,184.9 37.9,28.3 90.1,88.3 149.2,155.5 -192.9,1804.2 -1356.2,3430.9 -2789.7,4498.8 -37.7,28.1 -80.5,59.5 -126.5,91.1 28.3,-131 21.1,-273.3 -4.3,-412"
         style="fill:#e5f3db;fill-opacity:1;fill-rule:nonzero;stroke:none"
         id="path20" />
      <path
         d="m 18863.7,3507.1 c 23.4,35.8 43.7,74.1 61.1,114.5 85.6,199.1 102.3,444.8 86.1,665.5 -3.4,46 -7.9,91.9 -12.6,137.7 -0.9,9.1 -1.5,18.2 -2.5,27.2 -59.1,-67.2 -111.3,-127.2 -149.2,-155.5 -153.6,-114.3 -340.5,-194 -531.6,-184.9 -180.9,8.7 -348.9,95 -500.5,194.1 -601.6,394.1 -1028.4,1008.2 -1346.4,1648.9 -43.6,88 -85.2,176.5 -125,265 -151,336.1 -357.7,750.2 -369,1123.4 -6.6,212.8 42.9,422.5 81.9,630.2 40.6,216.2 46.4,438.5 19.3,656.7 -1.1,-5.8 -2.1,-11.8 -3.2,-17.6 -11.5,-59.1 -26.1,-117.4 -42.8,-173.7 -7.7,-26.2 -16.1,-52.2 -24.5,-78.2 4.9,-39 5.7,-78.4 2.2,-116.5 -15,-162.5 -89,-312.5 -143.7,-466.2 -91.1,-256.1 -118.1,-516.5 -109.4,-777.8 12.1,-362.9 93,-727.8 166,-1085.3 214.6,-1050.2 797.2,-2035 1689.3,-2640.3 11,-2.8 22.1,-5.6 33.1,-8.3 214.1,-51.9 427.7,-77.6 621.4,-62.7 29,2.3 57.4,5.7 85.5,9.8 108.6,15.9 209.7,45.8 299.2,93.2 91.3,48.3 161.4,118 215.3,200.8"
         style="fill:#bcc0ce;fill-opacity:1;fill-rule:nonzero;stroke:none"
         id="path22" />
      <path
         d="m 15919.9,5914.6 c -73,357.5 -153.9,722.4 -166,1085.3 -8.7,261.3 18.3,521.7 109.4,777.8 54.7,153.7 128.7,303.7 143.7,466.2 3.5,38.1 2.7,77.5 -2.2,116.5 -148.1,-456.7 -400.1,-879.3 -731.2,-1226.9 -35,-160.3 -75,-319.7 -118.9,-478.2 168.9,-288.1 323.5,-584.6 463.1,-887.9 4.8,-10.6 9.7,-21.3 14.6,-31.9 155.5,-341.1 292.1,-690.9 408.9,-1047 97.1,-296.4 122.8,-604 350.6,-819.3 16.4,-15.5 33.6,-30.5 52.2,-45 156.2,-121.9 375.4,-250.6 620.7,-359.4 172.7,-76.6 358.3,-143.1 544.4,-190.5 -892.1,605.3 -1474.7,1590.1 -1689.3,2640.3"
         style="fill:#959dbe;fill-opacity:1;fill-rule:nonzero;stroke:none"
         id="path24" />
      <path
         d="m 15463.3,9513.6 c 89.2,-226.2 140.7,-467.3 151.6,-710.2 2.4,-52.9 3.5,-108.2 29.3,-154.5 21.3,-38 65,-59.4 116.9,-69.6 94.3,-18.6 215.5,-0.8 278.2,19 11,3.5 21.9,8.5 32.8,14 1.1,5.8 2.1,11.8 3.2,17.6 25.4,138.7 32.6,281 4.3,412 -19.3,89.8 -55,174.4 -112.8,248.7 -118.1,151.5 -312.8,228 -506.1,225.6 0.2,-2.3 0.4,-4.6 0.4,-6.8 0.8,1.4 1.5,2.8 2.2,4.2"
         style="fill:#243f7c;fill-opacity:1;fill-rule:nonzero;stroke:none"
         id="path26" />
      <path
         d="m 15761.1,8579.3 c -51.9,10.2 -95.6,31.6 -116.9,69.6 -25.8,46.3 -26.9,101.6 -29.3,154.5 -10.9,242.9 -62.4,484 -151.6,710.2 -0.7,-1.4 -1.4,-2.8 -2.2,-4.2 3.7,-62 7.2,-124 9.5,-186.1 9,-245.2 7.4,-490.7 -4.5,-735.8 -9.9,-205.4 -26.4,-410.4 -50.9,-614.6 -33.6,-281.5 -81,-561.7 -141.6,-839.4 331.1,347.6 583.1,770.2 731.2,1226.9 8.4,26 16.8,52 24.5,78.2 16.7,56.3 31.3,114.6 42.8,173.7 -10.9,-5.5 -21.8,-10.5 -32.8,-14 -62.7,-19.8 -183.9,-37.6 -278.2,-19"
         style="fill:#1d2b50;fill-opacity:1;fill-rule:nonzero;stroke:none"
         id="path28" />
      <path
         d="m 5398.52,3824.2 c -156.25,-121.9 -375.39,-250.6 -620.71,-359.4 26.76,-66.9 59.85,-132 93.71,-195.3 70.2,-131 117.66,-257.7 167.23,-396.3 32.66,-91.4 102.54,-214.4 215.94,-216.9 113.86,-2.6 215.82,175.5 242.97,270.1 59.41,207.1 -63.32,359 -58.13,558.4 2.38,89.8 18.71,178.9 20.24,268.8 0.62,38.5 -2.04,77.6 -9.11,115.6 -16.36,-15.5 -33.59,-30.5 -52.14,-45"
         style="fill:#1d2b50;fill-opacity:1;fill-rule:nonzero;stroke:none"
         id="path30" />
      <path
         d="m 2831.72,4287.1 c 3.4,46 7.93,91.9 12.58,137.7 -162.07,-164 -308.75,-346.1 -407.97,-555.6 -40.82,-86.1 -73.87,-180.1 -63.75,-274.9 10.08,-94.7 73.87,-189.2 167.19,-208.3 112.73,-23.1 215.54,64.1 295.58,146.8 28.09,29 54.88,59.3 82.42,88.8 -85.62,199.1 -102.26,444.8 -86.05,665.5"
         style="fill:#1d2b50;fill-opacity:1;fill-rule:nonzero;stroke:none"
         id="path32" />
      <path
         d="m 2978.87,3507.1 c -82.46,-164.4 -148.4,-337.3 -180.59,-518.9 -16.64,-93.9 -23.71,-193.2 11.06,-282 34.72,-88.7 121.17,-163 216.25,-156.8 114.8,7.5 190.97,118.7 246.36,219.6 79.61,145.1 152.97,293.5 221.49,444.1 -108.6,15.9 -209.73,45.8 -299.18,93.2 -91.37,48.3 -161.49,118 -215.39,200.8"
         style="fill:#1d2b50;fill-opacity:1;fill-rule:nonzero;stroke:none"
         id="path34" />
      <path
         d="m 3578.87,3203.3 c -26.64,-129.6 -41.88,-261.2 -38.83,-393.9 2.23,-95.3 14.88,-194.2 66.44,-274.2 51.57,-80.2 150.98,-136 242.93,-111.2 111.1,30 163.83,154.1 198.21,263.9 55.08,175.7 102.77,353.7 142.97,533.4 3.32,14.9 6.52,29.8 9.72,44.7 -214.14,-51.9 -427.73,-77.6 -621.44,-62.7"
         style="fill:#1d2b50;fill-opacity:1;fill-rule:nonzero;stroke:none"
         id="path36" />
      <path
         d="m 3026.52,4295.2 c 153.48,-114.4 340.43,-194.1 531.61,-184.9 180.89,8.6 348.9,95 500.5,194.1 601.53,394.1 1028.28,1008.1 1346.33,1648.8 43.67,88 85.31,176.4 125.04,265 150.98,336.1 357.62,750.2 369.02,1123.4 6.53,212.8 -42.93,422.5 -81.95,630.2 -34.57,184.3 -43.44,372.9 -28.75,559.8 -41.13,168.4 -60.23,348 -25.35,510.3 -45.98,-31.6 -88.75,-63 -126.49,-91.1 C 4210.7,7888.7 3052.5,6273.8 2850.16,4481.3 c 70.23,-79.2 132.73,-153.6 176.36,-186.1"
         style="fill:#e5f3db;fill-opacity:1;fill-rule:nonzero;stroke:none"
         id="path38" />
      <path
         d="m 5953.2,5913.2 c 73.05,357.6 153.91,722.3 165.98,1085.4 8.67,261.2 -18.28,521.6 -109.41,777.7 -54.73,153.7 -128.64,303.8 -143.72,466.2 -1.25,13.7 -1.95,27.5 -2.18,41.3 -18.05,51.2 -35.2,102.8 -50.63,154.8 -8.12,27.6 -15.62,55.7 -22.69,84.1 -0.75,2.9 -1.49,5.9 -2.23,8.9 -14.69,-186.9 -5.82,-375.5 28.75,-559.8 39.02,-207.7 88.48,-417.4 81.95,-630.2 -11.4,-373.2 -218.04,-787.3 -369.02,-1123.4 -39.73,-88.6 -81.37,-177 -125.04,-265 -318.05,-640.7 -744.8,-1254.7 -1346.33,-1648.8 -151.6,-99.1 -319.61,-185.5 -500.5,-194.1 -191.18,-9.2 -378.13,70.5 -531.61,184.9 -43.63,32.5 -106.13,106.9 -176.36,186.1 -2.15,-18.8 -3.95,-37.6 -5.86,-56.5 -4.65,-45.8 -9.18,-91.7 -12.58,-137.7 -16.21,-220.7 0.43,-466.4 86.05,-665.5 17.39,-40.4 37.7,-78.7 61.1,-114.5 53.9,-82.8 124.02,-152.5 215.39,-200.8 89.45,-47.4 190.58,-77.3 299.18,-93.2 28.01,-4.1 56.4,-7.5 85.43,-9.8 193.71,-14.9 407.3,10.8 621.44,62.7 28.64,7 57.23,14.4 85.82,22.2 879.53,606.6 1454.3,1583.6 1667.07,2625"
         style="fill:#bcc0ce;fill-opacity:1;fill-rule:nonzero;stroke:none"
         id="path40" />
      <path
         d="m 5863.87,8283.8 c 0.23,-13.8 0.93,-27.6 2.18,-41.3 15.08,-162.4 88.99,-312.5 143.72,-466.2 91.13,-256.1 118.08,-516.5 109.41,-777.7 -12.07,-363.1 -92.93,-727.8 -165.98,-1085.4 -212.77,-1041.4 -787.54,-2018.4 -1667.07,-2625 168.32,46.2 335.32,107.3 491.68,176.6 245.32,108.8 464.46,237.5 620.71,359.4 18.55,14.5 35.78,29.5 52.14,45 227.82,215.3 253.6,522.9 350.67,819.3 116.68,356.1 253.36,705.9 408.87,1047 4.84,10.6 9.76,21.3 14.64,31.9 130.86,284.4 275.67,562.3 432.27,833.4 -55.94,197.2 -104.38,396.1 -146.48,596.2 -284.3,315 -505.63,686.7 -646.76,1086.8"
         style="fill:#959dbe;fill-opacity:1;fill-rule:nonzero;stroke:none"
         id="path42" />
      <path
         d="m 5788.32,8531.6 c 0.74,-3 1.48,-6 2.23,-8.9 19.68,-7.8 41.48,-11.3 62.69,-10.1 64.14,3.5 153.75,37.3 219.65,85.1 31.21,22.7 57.07,48.5 72.42,75.8 21.68,38.6 26.8,83.9 32.74,127.7 25.97,191.9 76.68,380.2 149.57,559.6 2.11,51.6 5.74,103 8.83,154.6 -177.86,-9.3 -351.84,-85.2 -460.59,-224.8 -57.85,-74.3 -93.56,-158.8 -112.89,-248.7 -34.88,-162.3 -15.78,-341.9 25.35,-510.3"
         style="fill:#243f7c;fill-opacity:1;fill-rule:nonzero;stroke:none"
         id="path44" />
      <path
         d="m 6325.82,9290.9 c 0.74,23.3 0.82,46.6 1.8,69.9 -72.89,-179.4 -123.6,-367.7 -149.57,-559.6 -5.94,-43.8 -11.06,-89.1 -32.74,-127.7 -15.35,-27.3 -41.21,-53.1 -72.42,-75.8 -65.9,-47.8 -155.51,-81.6 -219.65,-85.1 -21.21,-1.2 -43.01,2.3 -62.69,10.1 7.07,-28.4 14.57,-56.5 22.69,-84.1 15.43,-52 32.58,-103.6 50.63,-154.8 C 6005,7883.7 6226.33,7512 6510.63,7197 c -31.45,149.1 -59.03,298.8 -82.7,449.1 -17.15,108.7 -32.89,217.6 -45.94,326.8 -52.26,437.4 -70.74,878.2 -56.17,1318"
         style="fill:#1d2b50;fill-opacity:1;fill-rule:nonzero;stroke:none"
         id="path46" />
      <path
         d="m 8432.73,3535.3 c 21.45,-40.8 43.68,-81.2 67.58,-120.7 540.78,-517.1 1227.15,-880.8 1959.29,-1036.1 444.7,-94.3 905,-111.6 1355.7,-53.9 278.8,77.1 544.8,194.8 786.1,357.2 318.8,214.3 584.8,513.4 763.6,853.7 -1105.2,-411.9 -3826.6,-412 -4932.27,-0.2"
         style="fill:#1d2b50;fill-opacity:1;fill-rule:nonzero;stroke:none"
         id="path48" />
      <path
         d="m 15470.6,9323.3 c -575.4,-259 -1182.2,-453.5 -1802.1,-587.2 -399.4,-86.1 -804.4,-147.7 -1211.8,-185.8 -954.9,-89.2 -1931,-41 -2882.68,69.2 -1129.45,130.9 -2210.27,286.5 -3248.2,671.4 -14.57,-439.8 3.91,-880.6 56.17,-1318 13.05,-109.2 28.79,-218.1 45.94,-326.8 447.07,-351.5 904.65,-689.6 1402.34,-963.2 1298.05,-713.4 3079.73,-1042.1 4540.53,-665.5 18.4,4.8 36.8,9.6 55.1,14.6 677.2,183.9 1413.1,887.7 1920.5,1348.8 406.5,369.5 781.1,774 1119.7,1206.7 11.9,245.1 13.5,490.6 4.5,735.8"
         style="fill:#e5f3db;fill-opacity:1;fill-rule:nonzero;stroke:none"
         id="path50" />
      <path
         d="m 9984.06,3915.7 c -824.06,83.1 -1638.4,270.3 -2414.65,559.4 135.55,-229.4 281.1,-453.9 437.74,-671.9 74.1,-103.2 222.97,-192.4 425.58,-267.9 1105.67,-411.8 3827.07,-411.7 4932.27,0.2 202.4,75.5 351.1,164.6 425.1,267.7 144.5,201.1 279.1,407.9 405.6,618.7 -123.2,-43.6 -247.1,-85.5 -372.2,-124 -1237.8,-381.3 -2550.8,-512.3 -3839.44,-382.2"
         style="fill:#bcc0ce;fill-opacity:1;fill-rule:nonzero;stroke:none"
         id="path52" />
      <path
         d="m 15415.2,7972.9 c 24.5,204.2 41,409.2 50.9,614.6 -338.6,-432.7 -713.2,-837.2 -1119.7,-1206.7 C 13839,6919.7 13103.1,6215.9 12425.9,6032 c -18.3,-5 -36.7,-9.8 -55.1,-14.6 -1460.8,-376.6 -3242.48,-47.9 -4540.53,665.5 -497.69,273.6 -955.27,611.7 -1402.34,963.2 23.67,-150.3 51.25,-300 82.7,-449.1 42.1,-200.1 90.54,-399 146.48,-596.2 202.81,-715.2 495.82,-1409 874.22,-2061.6 265.08,-100.5 534.57,-189.6 807.77,-266 1235.9,-345.7 2537.8,-443.9 3811.4,-286 709.3,87.9 1410,253.9 2082.7,496.7 403.8,685.1 712.6,1416.7 921.5,2171.4 43.9,158.5 83.9,317.9 118.9,478.2 60.6,277.7 108,557.9 141.6,839.4"
         style="fill:#bcc0ce;fill-opacity:1;fill-rule:nonzero;stroke:none"
         id="path54" />
      <path
         d="m 12150.5,3987.2 c -1273.6,-157.9 -2575.5,-59.7 -3811.4,286 -273.2,76.4 -542.69,165.5 -807.77,266 12.46,-21.5 25.43,-42.8 38.08,-64.1 776.25,-289.1 1590.59,-476.3 2414.65,-559.4 1288.64,-130.1 2601.64,0.9 3839.44,382.2 125.1,38.5 249,80.4 372.2,124 12.5,20.7 25.2,41.2 37.5,62 -672.7,-242.8 -1373.4,-408.8 -2082.7,-496.7"
         style="fill:#243f7c;fill-opacity:1;fill-rule:nonzero;stroke:none"
         id="path56" />
      <path
         d="m 6325.82,9290.9 c 1037.93,-384.9 2118.75,-540.5 3248.2,-671.4 951.68,-110.2 1927.78,-158.4 2882.68,-69.2 407.4,38.1 812.4,99.7 1211.8,185.8 619.9,133.7 1226.7,328.2 1802.1,587.2 -2.3,62.1 -5.8,124.1 -9.5,186.1 0,2.2 -0.2,4.5 -0.4,6.8 -3.3,56.5 -6.7,113 -11.1,169.4 -1466.7,-143.3 -7635.3,-143.3 -9101.87,0 -4.53,-56.7 -7.93,-113.5 -11.28,-170.2 -3.09,-51.6 -6.72,-103 -8.83,-154.6 -0.98,-23.3 -1.06,-46.6 -1.8,-69.9"
         style="fill:#959dbe;fill-opacity:1;fill-rule:nonzero;stroke:none"
         id="path58" />
      <path
         d="m 4400.98,14145.1 c 50.7,221.3 129.06,597.8 144.37,650.9 75.82,263.3 166.17,522.7 271.95,775.4 18.48,44.1 41.65,106.8 69.93,173.7 95.47,328.8 210.35,650.3 343.2,960.2 14.88,34.6 29.92,69.2 45.12,103.8 -248.09,-53.9 -459.77,-121 -545.04,-192.3 -133.48,-111.6 -221.84,-258.2 -301.88,-404.4 -341.91,-624.9 -528.36,-1273.6 -578.4,-1926.4 119.11,-83.4 243.48,-159.3 373.25,-224.9 72.18,-36.4 159.45,5.2 177.5,84"
         style="fill:#243f7c;fill-opacity:1;fill-rule:nonzero;stroke:none"
         id="path60" />
      <path
         d="m 17368.6,16212.4 c -80,146.2 -168.3,292.8 -301.9,404.4 -85.3,71.3 -297.3,138.6 -545.6,192.4 15.5,-34.4 30.8,-69 45.7,-103.9 198.7,-463.2 357.7,-952.2 470.3,-1453.5 48.4,-70.8 95.6,-121.1 125.8,-206 74.2,-208.5 136.5,-418.8 212.7,-625.7 23.3,-63.3 48,-126.2 74.6,-188.7 185.1,77.5 341,185 468.8,321.2 -75.8,562.6 -255.1,1120.1 -550.4,1659.8"
         style="fill:#243f7c;fill-opacity:1;fill-rule:nonzero;stroke:none"
         id="path62" />
      <path
         d="m 17961.4,13929.3 c -0.2,208 -14.5,416 -42.4,623.3 -127.8,-136.2 -283.7,-243.7 -468.8,-321.2 -26.6,62.5 -51.3,125.4 -74.6,188.7 -76.2,206.9 -138.5,417.2 -212.7,625.7 -30.2,84.9 -77.4,135.2 -125.8,206 95,-422.8 156.7,-854.3 181,-1286.4 40.5,-722 -23.6,-1445.4 -213,-2132.5 -78.9,-286.1 -187.6,-592.9 -328.8,-889.8 264.4,74 493,161.3 578.4,243.3 125.5,120.6 203.5,272.9 273.2,424.3 352.1,764.7 486,1547.8 433.5,2318.6"
         style="fill:#1d2b50;fill-opacity:1;fill-rule:nonzero;stroke:none"
         id="path64" />
      <path
         d="m 4570.12,13739.4 c 17.26,676.9 128.51,1355.9 317.11,2005.7 -28.28,-66.9 -51.45,-129.6 -69.93,-173.7 -105.78,-252.7 -196.13,-512.1 -271.95,-775.4 -15.31,-53.1 -93.67,-429.6 -144.37,-650.9 -18.05,-78.8 -105.32,-120.4 -177.5,-84 -129.77,65.6 -254.14,141.5 -373.25,224.9 -9.1,-118.8 -14.21,-237.8 -14.37,-356.7 -52.54,-770.8 81.44,-1553.9 433.52,-2318.6 69.68,-151.4 147.73,-303.7 273.16,-424.3 85.39,-82 313.98,-169.3 578.44,-243.3 -141.25,296.9 -249.93,603.7 -328.79,889.8 -169.61,615.4 -238.52,1260 -222.07,1906.5"
         style="fill:#1d2b50;fill-opacity:1;fill-rule:nonzero;stroke:none"
         id="path66" />
      <path
         d="m 17037.1,15251.8 c -112.6,501.3 -271.6,990.3 -470.3,1453.5 -14.9,34.9 -30.2,69.5 -45.7,103.9 -204.6,455.6 -459.7,874.7 -870.9,1189 -727,555.8 -8686.18,537.7 -9503.13,0 -432.54,-284.6 -669.49,-729.6 -871.52,-1189.1 -15.2,-34.6 -30.24,-69.2 -45.12,-103.8 -132.85,-309.9 -247.73,-631.4 -343.2,-960.2 -188.6,-649.8 -299.85,-1328.8 -317.11,-2005.7 127.18,-147.5 265.97,-285 414.26,-411 212.77,-181 473.24,-465.2 758.32,-268.3 223.39,154.3 179.45,433.1 200.7,671.5 22.42,251.6 47.77,506.4 106.68,752.5 34.92,146.1 76.72,290.7 124.96,433.2 114.02,588.2 351.33,1146.8 768.44,1586.6 107.85,113.7 2053.9,154.6 3955.12,144.9 1901.3,9.7 3847.3,-31.2 3955.2,-144.9 351.7,-370.9 575.4,-826.4 705.4,-1312.8 31.5,-63.6 61.4,-128 88.8,-193.4 100.9,-241.4 164.9,-478.9 199.7,-736.9 l 112.8,-837 c 19.4,-143.8 171.4,-229.9 303.8,-170.6 263.7,118 510.7,265.4 723.7,461.2 87.9,80.8 163.7,164.7 230.1,251 -24.3,432.1 -86,863.6 -181,1286.4"
         style="fill:#e5f3db;fill-opacity:1;fill-rule:nonzero;stroke:none"
         id="path68" />
      <path
         d="m 17218.1,13965.4 c -66.4,-86.3 -142.2,-170.2 -230.1,-251 -213,-195.8 -460,-343.2 -723.7,-461.2 -132.4,-59.3 -284.4,26.8 -303.8,170.6 l -112.8,837 c -34.8,258 -98.8,495.5 -199.7,736.9 -27.4,65.4 -57.3,129.8 -88.8,193.4 86.3,-323 131.4,-659.7 144.6,-994.5 33.6,-180.7 54.3,-365.3 61.5,-550.7 28.3,-730.5 -179.2,-2446.2 -632.9,-2663.2 -508.9,-243.4 -7537.13,-10.5 -8042.09,30.9 -419.61,34.4 -559.37,256.9 -684.49,657.3 -107.81,345.3 -172.58,711.8 -190.78,1080.1 -132.54,653 -182.27,1432.6 -40,2166.3 -48.24,-142.5 -90.04,-287.1 -124.96,-433.2 -58.91,-246.1 -84.26,-500.9 -106.68,-752.5 -21.25,-238.4 22.69,-517.2 -200.7,-671.5 -285.08,-196.9 -545.55,87.3 -758.32,268.3 -148.29,126 -287.08,263.5 -414.26,411 -16.45,-646.5 52.46,-1291.1 222.07,-1906.5 78.86,-286.1 187.54,-592.9 328.79,-889.8 221.17,-464.9 522.89,-905.2 919.96,-1201.3 27.77,-20.7 135.15,-39.4 306.79,-56.2 1466.57,-143.3 7635.17,-143.3 9101.87,0 171.6,16.8 279,35.5 306.7,56.2 397.1,296.1 698.8,736.4 920,1201.3 141.2,296.9 249.9,603.7 328.8,889.8 189.4,687.1 253.5,1410.5 213,2132.5"
         style="fill:#bcc0ce;fill-opacity:1;fill-rule:nonzero;stroke:none"
         id="path70" />
      <path
         d="m 14939.1,11248.2 c -120.5,-71.1 -2102.9,-105.8 -4040.5,-104.1 -1937.51,-1.7 -3919.93,33 -4040.4,104.1 -208.43,123.2 -484.8,722.5 -643.16,1502.8 18.2,-368.3 82.97,-734.8 190.78,-1080.1 125.12,-400.4 264.88,-622.9 684.49,-657.3 504.96,-41.4 7533.19,-274.3 8042.09,-30.9 453.7,217 661.2,1932.7 632.9,2663.2 -7.2,185.4 -27.9,370 -61.5,550.7 55.1,-1395 -438.3,-2755.5 -764.7,-2948.4"
         style="fill:#959dbe;fill-opacity:1;fill-rule:nonzero;stroke:none"
         id="path72" />
      <path
         d="m 15703.8,14196.6 c -13.2,334.8 -58.3,671.5 -144.6,994.5 -130,486.4 -353.7,941.9 -705.4,1312.8 -107.9,113.7 -2053.9,154.6 -3955.2,144.9 -1901.22,9.7 -3847.27,-31.2 -3955.12,-144.9 -417.11,-439.8 -654.42,-998.4 -768.44,-1586.6 -142.27,-733.7 -92.54,-1513.3 40,-2166.3 158.36,-780.3 434.73,-1379.6 643.16,-1502.8 120.47,-71.1 2102.89,-105.8 4040.4,-104.1 1937.6,-1.7 3920,33 4040.5,104.1 326.4,192.9 819.8,1553.4 764.7,2948.4"
         style="fill:#1d2b50;fill-opacity:1;fill-rule:nonzero;stroke:none"
         id="path74" />
      <path
         d="m 6858.59,14323.4 c -61.4,-308.4 -111.4,-635.7 -3.71,-931.1 172.82,-473.9 691.1,-513.8 1125.55,-495.8 17.03,0.7 34.18,1.7 51.21,2.4 -69.26,132.9 -105.35,286 -114.45,432.2 -22.5,360.7 16.79,1752.9 198.47,1950.3 265,288 836.53,291.1 1104.26,0 181.68,-197.5 220.98,-1589.6 198.48,-1950.3 -7.35,-117.6 -32.19,-239.5 -77.58,-351.9 660.48,53.5 1321.98,128.1 1974.18,232.3 355.2,56.7 708.7,123.2 1060.4,198.3 -13.6,450.4 31.6,1686.5 201.9,1871.6 265,288 836.5,291.1 1104.3,0 129.8,-141.1 186.9,-892.3 200.8,-1441.2 169.1,82.3 329.6,186.2 480.1,325.4 308.3,285.4 563,748.8 360,1166.2 -115.1,236.7 -337.1,407.9 -578.5,512.9 -241.4,104.8 -503.7,150.5 -763.4,193 -1716.9,281.1 -3484.19,460.8 -5188.49,111 -212.27,-43.5 -447.23,-91.5 -637.15,-200.9 -167.38,-96.5 -252.07,-278.5 -336.44,-450.3 -181.25,-369.1 -280,-772.7 -359.93,-1174.1"
         style="fill:#243f7c;fill-opacity:1;fill-rule:nonzero;stroke:none"
         id="path76" />
      <path
         d="m 9219.92,15281.4 c -267.73,291.1 -839.26,288 -1104.26,0 -181.68,-197.4 -220.97,-1589.6 -198.47,-1950.3 9.1,-146.2 45.19,-299.3 114.45,-432.2 55,-105.6 130.94,-198.6 231.17,-265.1 217.46,-144.5 585.51,-149.1 809.96,0 124.93,83 212.11,206.9 268.05,345.4 45.39,112.4 70.23,234.3 77.58,351.9 22.5,360.7 -16.8,1752.8 -198.48,1950.3"
         style="fill:#58c9f5;fill-opacity:1;fill-rule:nonzero;stroke:none"
         id="path78" />
      <path
         d="m 12577.3,15281.4 c -170.3,-185.1 -215.5,-1421.2 -201.9,-1871.6 0.9,-29.8 2.1,-56.3 3.5,-78.7 16.3,-262.5 119.3,-547 345.6,-697.3 217.4,-144.5 585.5,-149.1 809.9,0 226.4,150.3 329.3,434.8 345.7,697.3 6.4,102.9 7.8,290 2.3,509.1 -13.9,548.9 -71,1300.1 -200.8,1441.2 -267.8,291.1 -839.3,288 -1104.3,0"
         style="fill:#58c9f5;fill-opacity:1;fill-rule:nonzero;stroke:none"
         id="path80" />
      <path
         d="m 10459.6,2378.5 c -732.14,155.3 -1418.51,519 -1959.29,1036.1 175.35,-290.1 415,-544.1 695.63,-732.8 497.34,-334.7 1100.06,-479.7 1702.66,-471.8 310.4,-4 620.7,32.5 916.7,114.6 -450.7,-57.7 -911,-40.4 -1355.7,53.9"
         style="fill:#243f7c;fill-opacity:1;fill-rule:nonzero;stroke:none"
         id="path82" />
    </g>
  </g>
</svg>
